# xmcd CD database file
#
# Track frame offsets:
#	150
#	12191
#	28233
#	41171
#	56468
#	75022
#	90902
#	108229
#	124906
#	137702
#
# Disc length: 2059 seconds
#
# Revision: 0
# Processed by: cddbd v1.4PL0 Copyright (c) Steve Scherf et al.
# Submitted via: CDex 1.50beta9
#
DISCID=7108090a
DTITLE=Robert Mizzell - Hello Mr DJ'
DYEAR=1900
DGENRE=Country
TTITLE0=Heollo Mr DJ
TTITLE1=I'm No Stranger To The Rain
TTITLE2=Mansion On The Hill
TTITLE3=Kick Ass Country
TTITLE4=I'm Hoping It's A Lie
TTITLE5=Last Curtain Falls
TTITLE6=Say You Love Me
TTITLE7=Hey God
TTITLE8=Are You Waistin' My Time
TTITLE9=Big Tom Tribute
EXTD=
EXTT0=
EXTT1=
EXTT2=
EXTT3=
EXTT4=
EXTT5=
EXTT6=
EXTT7=
EXTT8=
EXTT9=
PLAYORDER=
